<?xml version="1.0" standalone="no"?>
<!DOCTYPE svg PUBLIC "-//W3C//DTD SVG 20010904//EN"
 "http://www.w3.org/TR/2001/REC-SVG-20010904/DTD/svg10.dtd">
<svg version="1.0" xmlns="http://www.w3.org/2000/svg"
 width="512.000000pt" height="512.000000pt" viewBox="0 0 512.000000 512.000000"
 preserveAspectRatio="xMidYMid meet">
<metadata>
Created by potrace 1.11, written by Peter Selinger 2001-2013
</metadata>
<g transform="translate(0.000000,512.000000) scale(0.100000,-0.100000)"
fill="#000000" stroke="none">
<path d="M2324 4902 c-15 -11 -123 -155 -191 -257 -221 -332 -382 -690 -513
-1140 -21 -74 -65 -266 -74 -326 -3 -20 -8 -42 -10 -50 -3 -8 -7 -32 -10 -54
-2 -22 -9 -71 -15 -110 -29 -207 -33 -263 -38 -645 -2 -190 -6 -350 -8 -356
-2 -8 -75 -11 -234 -11 -158 0 -235 -3 -243 -11 -6 -6 -43 -109 -83 -229 -262
-790 -305 -923 -305 -938 0 -26 28 -48 53 -41 12 3 108 78 212 167 105 89 246
208 313 265 l124 104 167 0 167 0 21 -29 21 -28 -99 -329 c-54 -181 -101 -339
-103 -351 -3 -13 3 -28 15 -39 22 -20 39 -16 154 36 115 52 360 158 373 162 9
2 64 -97 155 -277 78 -153 150 -284 160 -290 12 -7 22 -7 34 1 10 6 79 132
153 280 74 148 138 274 143 281 5 8 47 -6 145 -49 163 -71 177 -77 265 -117
38 -17 79 -34 93 -37 27 -7 54 10 54 35 0 14 -38 146 -152 526 -16 55 -34 115
-40 134 -8 28 -6 38 10 60 l19 26 172 3 172 2 87 -74 c48 -41 168 -143 267
-226 99 -84 191 -162 205 -174 69 -60 88 -70 115 -58 15 7 25 20 25 33 0 30
-370 1151 -386 1168 -10 11 -61 14 -251 15 l-237 1 -2 310 c-1 273 -7 435 -19
539 -22 187 -33 260 -50 351 -8 39 -16 84 -19 100 -3 17 -15 68 -27 115 -11
47 -22 92 -24 100 -25 112 -144 456 -210 605 -92 208 -214 426 -340 610 -146
212 -175 242 -211 217z"/>
</g>
</svg>
